<?xml version="1.0" encoding="utf-8"?>
<svg viewBox="91.651 62.209 94.991 79.404">
  <g transform="matrix(0.1, 0, 0, -0.1, 98.486311, 133.941313)" fill="#000000" stroke="none">
    <path d="M 0 540 L 0 440 L 110 440 L 220 440 L 220 280 L 220 120 L 260 120 L 300 120 L 300 280 L 300 440 L 345 440 L 390 440 L 390 480 L 390 520 L 227.611 520 L 78.827 520.692 C 78.827 520.692 78.827 534.035 78.827 540 C 78.827 544.479 78.827 559.613 78.827 559.613 L 91.832 559.613 C 91.832 559.613 177.692 560 405 560 L 730 560 L 730 321 C 730 118 730.163 79.633 730.163 79.633 L 699.447 79.633 C 699.447 79.633 699.447 47.342 699.447 35.339 L 699.447 0 L 750 0 L 800 0 L 800 320 L 800 640 L 400 640 L 0 640 L 0 540 Z"/>
    <path d="M 580 440 L 580 360 L 470 360 L 360 360 L 360 320 L 360 280 L 470 280 L 580 280 L 580 180 L 580 80 L 330 80 L 81 80 L 79.138 238 L 78.698 400.405 L 39.138 400.561 L 0 401 L 0 201 L 0 0 L 330 0 L 660 0 L 660 260 L 660 520 L 620 520 L 580 520 L 580 440 Z"/>
  </g>
</svg>